<?xml version="1.0" encoding="UTF-8" standalone="no"?>
<svg
   viewBox="0 0 512 512"
   version="1.1"
   id="svg297"
   sodipodi:docname="money.svg"
   inkscape:version="1.2 (dc2aedaf03, 2022-05-15)"
   xmlns:inkscape="http://www.inkscape.org/namespaces/inkscape"
   xmlns:sodipodi="http://sodipodi.sourceforge.net/DTD/sodipodi-0.dtd"
   xmlns="http://www.w3.org/2000/svg"
   xmlns:svg="http://www.w3.org/2000/svg">
  <defs
     id="defs301" />
  <sodipodi:namedview
     id="namedview299"
     pagecolor="#ffffff"
     bordercolor="#999999"
     borderopacity="1"
     inkscape:showpageshadow="0"
     inkscape:pageopacity="0"
     inkscape:pagecheckerboard="0"
     inkscape:deskcolor="#d1d1d1"
     showgrid="false"
     inkscape:zoom="0.7578125"
     inkscape:cx="-27.051546"
     inkscape:cy="282.39175"
     inkscape:window-width="1920"
     inkscape:window-height="974"
     inkscape:window-x="-11"
     inkscape:window-y="-11"
     inkscape:window-maximized="1"
     inkscape:current-layer="svg297" />
  <!--! Font Awesome Pro 6.2.1 by @fontawesome - https://fontawesome.com License - https://fontawesome.com/license (Commercial License) Copyright 2022 Fonticons, Inc. -->
  <path
     d="m 311.23438,371.39063 c -17.26563,6.24999 -35.85938,9.60936 -55.23437,9.60936 -19.375,0 -38.04689,-3.43748 -55.23439,-9.60936 -0.23438,-0.0781 -0.39061,-0.15623 -0.62499,-0.23439 -23.43751,-8.59375 -44.375,-22.42187 -61.40627,-40.15625 C 110.68749,301.78124 93.499992,262.17188 93.499992,218.5 93.499992,128.73438 166.23437,55.999999 256.00001,55.999999 345.76563,55.999999 418.5,128.73438 418.5,218.5 c 0,43.67188 -17.1875,83.28124 -45.23438,112.49999 -0.78124,0.78127 -1.56251,1.64064 -2.34376,2.42188 -16.71874,16.71875 -37.03124,29.76563 -59.60935,37.96876 z M 256.00001,127.79687 c -8.67189,0 -15.70315,7.03125 -15.70315,15.70312 v 4.68751 c -4.37499,0.93749 -8.51561,2.26563 -12.42186,3.98437 -11.71876,5.31249 -21.79688,15.15625 -24.29689,29.45312 -1.40624,7.96875 -0.62498,15.62501 2.65626,22.65626 3.28125,6.87499 8.35938,11.71874 13.51563,15.23438 9.06249,6.17188 21.01563,9.76562 30.15624,12.49999 l 1.71875,0.54688 c 10.85938,3.28124 18.28126,5.78124 22.89064,9.14062 1.95313,1.40624 2.65624,2.50001 2.96874,3.12499 0.23437,0.62501 0.70313,2.03126 0.15623,5.23439 -0.46875,2.73437 -1.95313,5 -6.24999,6.87499 -4.76562,2.03126 -12.50001,3.04687 -22.5,1.48438 -4.6875,-0.78125 -13.04689,-3.59374 -20.46875,-6.17187 v 0 0 0 c -1.71876,-0.54688 -3.35937,-1.17188 -5,-1.64062 -8.20312,-2.73439 -17.03126,1.71874 -19.76563,9.92186 -2.73437,8.20313 1.71876,17.03126 9.92188,19.76564 0.93749,0.3125 2.10937,0.70311 3.43749,1.17187 6.17187,2.10937 15.85938,5.39063 23.28125,7.10938 V 293.5 c 0,8.67187 7.03125,15.70312 15.70314,15.70312 8.67187,0 15.70312,-7.03125 15.70312,-15.70312 v -4.29688 c 4.21875,-0.78125 8.20311,-1.95313 12.03125,-3.59375 12.26561,-5.23437 22.1875,-15.39062 24.6875,-30.23437 1.40625,-8.125 0.78125,-15.85939 -2.34376,-22.96875 -3.04687,-7.03124 -7.96873,-12.18751 -13.20312,-16.01562 -9.53125,-6.87501 -22.10937,-10.70312 -31.56249,-13.59376 l -0.625,-0.15623 c -11.09377,-3.35937 -18.59376,-5.70313 -23.35939,-8.90626 -2.03125,-1.40624 -2.65624,-2.34374 -2.81249,-2.73437 -0.15623,-0.23437 -0.54688,-1.24999 -0.0781,-3.90625 0.23439,-1.48438 1.48438,-4.06251 6.40627,-6.32811 5,-2.26563 12.81249,-3.51564 22.34374,-2.03126 3.35937,0.54688 13.98437,2.57813 16.95313,3.35938 8.35937,2.18749 16.87499,-2.73437 19.14061,-11.09376 2.26563,-8.35937 -2.73437,-16.875 -11.09374,-19.14062 -3.4375,-0.9375 -11.25001,-2.50001 -16.40626,-3.4375 v -4.92188 c 0,-8.67188 -7.03125,-15.70313 -15.70312,-15.70313 z M 93.499992,330.99999 H 106 c 15.23437,20.23437 34.37499,37.26563 56.40625,50 H 106 v 25 h 150.00001 149.99998 v -25 h -56.40624 c 22.03125,-12.73437 41.24999,-29.76563 56.40624,-50 H 418.5 c 20.70312,0 37.5,16.79689 37.5,37.50001 v 50 c 0,20.70312 -16.79688,37.5 -37.5,37.5 H 93.499992 C 72.796871,456 55.999999,439.20312 55.999999,418.5 v -50 c 0,-20.70312 16.796872,-37.50001 37.499993,-37.50001 z"
     id="path295"
     style="fill:#ea580c;fill-opacity:1;stroke-width:1" />
</svg>
